# xmcd CD database file
#
# Track frame offsets:
#	150
#	31837
#	53053
#	75225
#	97830
#	117000
#	139785
#	156184
#	175846
#	211675
#	243041
#	264948
#	285610
#
# Disc length: 4248 seconds
#
# Revision: 1
# Processed by: cddbd v1.4PL0 Copyright (c) Steve Scherf et al.
# Submitted via: CDex 1.51
#
DISCID=9410960d
DTITLE=Various Artist - New Age and New Sounds
DYEAR=2000
DGENRE=New Age
TTITLE0=Christophe Goze - Barcelona
TTITLE1=Cybertribe - Reaching Motherland (Spirit of Flow Remix)
TTITLE2=Communication - Fugue
TTITLE3=Ranga - Innocence
TTITLE4=Giancarlo Parisi e Katia Pesti - Dei Pupari
TTITLE5=Joe McBride - Keepin' It Real
TTITLE6=Aco Bocina - Emocion
TTITLE7=Sunhoney - Favourite Place
TTITLE8=Patrick Kosmos - Eargasm
TTITLE9=Al-pha-x - Mi Corazon (Smokers Mix)
TTITLE10=Bobby Watson - Afternoon in Ottobrun
TTITLE11=Harem Scarem - Mal Bhan Ni Chuilleannain
TTITLE12=James Asher - Return to Egypt
EXTD=YEAR: 2000
EXTT0=
EXTT1=
EXTT2=
EXTT3=
EXTT4=
EXTT5=
EXTT6=
EXTT7=
EXTT8=
EXTT9=
EXTT10=
EXTT11=
EXTT12=
PLAYORDER=
